HIERARCHY
ROOT Hips
{
	OFFSET 0.000000 0.000000 0.000000
	CHANNELS 6 Xposition Yposition Zposition Xrotation Yrotation Zrotation
	JOINT LeftUpLeg_virtual
	{
		OFFSET 0.000000 0.000000 0.000000
		CHANNELS 3 Xrotation Yrotation Zrotation
		JOINT LeftUpLeg
		{
			OFFSET 13.026900 -6.336304 -1.092800
			CHANNELS 3 Xrotation Yrotation Zrotation
			JOINT LeftLeg
			{
				OFFSET 0.524474 -46.096886 9.782700
				CHANNELS 3 Xrotation Yrotation Zrotation
				JOINT LeftFoot
				{
					OFFSET -0.524474 -53.427422 -12.948200
					CHANNELS 3 Xrotation Yrotation Zrotation
					JOINT LeftToeBase
					{
						OFFSET 0.192200 -14.009700 16.364100
						CHANNELS 3 Xrotation Yrotation Zrotation
						JOINT LeftToe_End
						{
							OFFSET -1.784700 -0.561700 9.474800
							CHANNELS 3 Xrotation Yrotation Zrotation
							End Site
							{
								OFFSET 0 0 0
							}
						}
					}
				}
			}
		}
	}
	JOINT RightUpLeg_virtual
	{
		OFFSET 0.000000 0.000000 0.000000
		CHANNELS 3 Xrotation Yrotation Zrotation
		JOINT RightUpLeg
		{
			OFFSET -12.883000 -6.336304 -1.092800
			CHANNELS 3 Xrotation Yrotation Zrotation
			JOINT RightLeg
			{
				OFFSET -0.524587 -46.096825 9.782800
				CHANNELS 3 Xrotation Yrotation Zrotation
				JOINT RightFoot
				{
					OFFSET 0.524587 -53.427383 -12.948300
					CHANNELS 3 Xrotation Yrotation Zrotation
					JOINT RightToeBase
					{
						OFFSET -0.192200 -14.009700 16.364100
						CHANNELS 3 Xrotation Yrotation Zrotation
						JOINT RightToe_End
						{
							OFFSET 1.784700 -0.561700 9.474800
							CHANNELS 3 Xrotation Yrotation Zrotation
							End Site
							{
								OFFSET 0 0 0
							}
						}
					}
				}
			}
		}
	}
	JOINT Spine_virtual
	{
		OFFSET 0.000000 0.000000 0.000000
		CHANNELS 3 Xrotation Yrotation Zrotation
		JOINT Spine
		{
			OFFSET 0.072000 7.257294 -0.789700
			CHANNELS 3 Xrotation Yrotation Zrotation
			JOINT Spine1
			{
				OFFSET 0.000000 12.508769 -0.658067
				CHANNELS 3 Xrotation Yrotation Zrotation
				JOINT Spine1_split
				{
					OFFSET 0.000000 12.508769 -0.658067
					CHANNELS 3 Xrotation Yrotation Zrotation
					JOINT Spine2
					{
						OFFSET 0.000000 12.508769 -0.658067
						CHANNELS 3 Xrotation Yrotation Zrotation
						JOINT Neck_virtual
						{
							OFFSET 0.000000 0.000000 0.000000
							CHANNELS 3 Xrotation Yrotation Zrotation
							JOINT Neck
							{
								OFFSET 0.000000 14.033295 7.520400
								CHANNELS 3 Xrotation Yrotation Zrotation
								JOINT Head
								{
									OFFSET 0.000000 8.198502 5.703100
									CHANNELS 3 Xrotation Yrotation Zrotation
									JOINT HeadTop_End
									{
										OFFSET 0.000000 17.760803 13.332701
										CHANNELS 3 Xrotation Yrotation Zrotation
										End Site
										{
											OFFSET 0 0 0
										}
									}
								}
							}
						}
						JOINT LeftShoulder_virtual
						{
							OFFSET 0.000000 0.000000 0.000000
							CHANNELS 3 Xrotation Yrotation Zrotation
							JOINT LeftShoulder
							{
								OFFSET 6.292450 5.785301 -0.669000
								CHANNELS 3 Xrotation Yrotation Zrotation
								JOINT LeftShoulder_split
								{
									OFFSET 6.292450 5.785301 -0.669000
									CHANNELS 3 Xrotation Yrotation Zrotation
									JOINT LeftArm
									{
										OFFSET 13.907140 -6.093903 1.965100
										CHANNELS 3 Xrotation Yrotation Zrotation
										JOINT LeftForeArm
										{
											OFFSET 34.140198 0.000000 0.000000
											CHANNELS 3 Xrotation Yrotation Zrotation
											JOINT LeftHand
											{
												OFFSET 40.960209 0.000000 0.000000
												CHANNELS 3 Xrotation Yrotation Zrotation
												End Site
												{
													OFFSET 0 0 0
												}
											}
										}
									}
								}
							}
						}
						JOINT RightShoulder_virtual
						{
							OFFSET 0.000000 0.000000 0.000000
							CHANNELS 3 Xrotation Yrotation Zrotation
							JOINT RightShoulder
							{
								OFFSET -6.292450 5.785301 -0.669000
								CHANNELS 3 Xrotation Yrotation Zrotation
								JOINT RightShoulder_split
								{
									OFFSET -6.292450 5.785301 -0.669000
									CHANNELS 3 Xrotation Yrotation Zrotation
									JOINT RightArm
									{
										OFFSET -13.907140 -6.093903 1.965100
										CHANNELS 3 Xrotation Yrotation Zrotation
										JOINT RightForeArm
										{
											OFFSET -34.140198 0.000000 0.000000
											CHANNELS 3 Xrotation Yrotation Zrotation
											JOINT RightHand
											{
												OFFSET -40.960209 0.000000 0.000000
												CHANNELS 3 Xrotation Yrotation Zrotation
												End Site
												{
													OFFSET 0 0 0
												}
											}
										}
									}
								}
							}
						}
					}
				}
			}
		}
	}
}
MOTION
Frames: 4
Frame Time: 0.03333333
0.179276 115.918457 -1.393858 0.000000 0.000000 0.000000 -3.083163 4.142159 -1.944142 -10.744758 10.044830 13.118369 17.124693 -4.815471 -0.038894 -4.921308 0.269183 -4.690017 0.126487 0.073716 -0.490651 0.000000 0.000000 0.000000 -3.392164 5.145565 -1.759530 -14.777985 -4.490846 -2.418576 14.144875 1.829608 -1.539412 3.510085 0.563488 2.381367 -0.576751 0.400135 1.418797 0.000000 0.000000 0.000000 -3.499123 6.694176 -1.719865 11.367882 -0.362677 1.398296 2.616994 0.034688 -0.307328 0.314878 -1.699315 0.916249 0.000000 0.000000 0.000000 -4.511242 -0.149386 0.279362 0.099243 -0.983053 0.567979 7.282968 -2.979793 -1.706006 0.000000 0.000000 0.000000 -4.748244 -0.454468 0.293652 0.195194 -3.996854 -7.931666 -1.135131 -0.830672 0.630816 6.608306 -1.179563 -73.480084 5.184888 -8.182569 3.428579 0.000000 0.000000 0.000000 -5.481588 -0.653852 0.392779 0.962544 8.400579 6.000947 -3.975863 -0.850374 -0.033140 4.845260 12.239367 75.825113 16.459856 18.278320 -3.894481 0.000000 0.000000 0.000000 
0.446082 116.046486 -1.488909 0.000000 0.000000 0.000000 -2.946357 4.117226 -1.900891 -10.562796 9.904709 12.925658 17.068260 -4.592165 -0.063382 -5.139430 0.398280 -4.669504 0.264922 0.056136 -0.491278 0.000000 0.000000 0.000000 -3.163147 5.044238 -1.789569 -14.899250 -4.724903 -2.587662 13.661996 1.818286 -1.578767 3.441710 0.765352 2.198437 -0.633518 0.410775 1.350842 0.000000 0.000000 0.000000 -3.269854 6.375634 -1.750160 11.229277 -0.307937 1.420131 2.609462 0.047090 -0.326648 0.343077 -1.862075 0.761392 0.000000 0.000000 0.000000 -4.412544 -0.124408 0.271465 0.112001 -0.918307 0.540517 7.319004 -3.125550 -1.544957 0.000000 0.000000 0.000000 -4.744436 -0.436626 0.245700 0.251441 -3.940897 -7.826529 -1.201038 -0.798804 0.704978 6.484930 -1.313105 -73.502971 5.124858 -8.365108 3.396669 0.000000 0.000000 0.000000 -5.490656 -0.628372 0.413114 0.935029 8.075058 5.840543 -3.994476 -0.802280 -0.051052 4.752767 12.651637 75.726587 16.535471 18.598043 -4.112112 0.000000 0.000000 0.000000 
0.834115 116.077621 -1.412802 0.000000 0.000000 0.000000 -2.940499 4.146222 -1.917178 -10.350900 9.779035 12.701274 17.157049 -4.309022 -0.131170 -5.511927 0.570675 -4.593044 0.491283 0.036268 -0.469436 0.000000 0.000000 0.000000 -2.978708 4.907195 -1.920840 -14.574246 -5.018134 -2.806631 12.937145 1.829903 -1.636911 3.009756 1.215175 1.958283 -0.822783 0.445060 1.104578 0.000000 0.000000 0.000000 -3.083666 5.996609 -1.747928 11.065916 -0.173453 1.442158 2.623278 0.088508 -0.360804 0.359470 -1.866162 0.635782 0.000000 0.000000 0.000000 -4.265592 -0.078591 0.253788 0.060247 -0.826549 0.442453 7.146638 -3.245980 -1.318094 0.000000 0.000000 0.000000 -4.681973 -0.393965 0.195549 0.327094 -3.885867 -7.617973 -1.325954 -0.890456 0.760741 6.324234 -1.619897 -73.401290 5.162175 -8.507507 3.335155 0.000000 0.000000 0.000000 -5.405491 -0.580601 0.404605 0.949907 7.759573 5.608214 -3.976953 -0.879243 -0.029694 4.621776 13.214670 75.614224 16.671177 19.191454 -4.729905 0.000000 0.000000 0.000000 
1.320841 115.973175 -1.103472 0.000000 0.000000 0.000000 -3.040691 4.176474 -1.973744 -10.109372 9.713174 12.455349 17.318421 -3.975343 -0.243008 -5.935041 0.722884 -4.480505 0.583192 0.008848 -0.402576 0.000000 0.000000 0.000000 -2.875426 4.756788 -2.052959 -13.937611 -5.404130 -3.138885 12.305291 1.846114 -1.623777 2.349335 1.810647 1.658065 -0.985567 0.503270 0.747104 0.000000 0.000000 0.000000 -3.029709 5.642885 -1.716430 10.897083 -0.014161 1.462609 2.655858 0.147575 -0.384731 0.351348 -1.744233 0.574690 0.000000 0.000000 0.000000 -4.108937 -0.027676 0.251365 -0.026694 -0.730395 0.295035 6.800013 -3.362281 -1.034812 0.000000 0.000000 0.000000 -4.570961 -0.338477 0.163854 0.420792 -3.829472 -7.358670 -1.533541 -1.020920 0.773149 6.192334 -2.086427 -73.288490 5.296300 -8.514353 3.241893 0.000000 0.000000 0.000000 -5.238265 -0.521819 0.387493 1.009175 7.476277 5.330955 -3.975475 -1.023623 -0.058801 4.443183 13.719026 75.535888 16.802781 19.905681 -5.640723 0.000000 0.000000 0.000000 
